<?xml version="1.0" encoding="UTF-8"?><svg id="Layer_2" xmlns="http://www.w3.org/2000/svg" xmlns:xlink="http://www.w3.org/1999/xlink" viewBox="0 0 223.75 307.55"><defs><style>.cls-1{fill:#fff;font-family:Bauhaus93, 'Bauhaus 93';font-size:25px;}.cls-2{fill:url(#linear-gradient);}</style><linearGradient id="linear-gradient" x1="0" y1="153.77" x2="223.75" y2="153.77" gradientUnits="userSpaceOnUse"><stop offset="0" stop-color="#881554"/><stop offset=".5" stop-color="#9e1f63"/><stop offset="1" stop-color="#ae2471"/></linearGradient></defs><g id="Chips"><g><path class="cls-2" d="M1.53,3.62L0,13.84S17.87,58.26,18.38,63.37s2.04,16.85-.51,18.38,1.02,59.74,1.02,64.34,.51,42.89,0,49.53-.51,37.79,1.02,42.89-11.23,34.72-15.83,51.57c-4.6,16.85-4.09,16.85-1.02,16.85s98.04-1.02,105.7-1.02,52.09,2.55,61.28,1.02,39.83-.51,46.47,.51,9.19-6.13,5.62-24-17.36-46.47-16.34-50.55,4.6-41.87,3.06-55.15-5.11-28.09-3.57-34.21,1.53-21.96,2.04-37.28-5.62-29.11-2.55-34.21,8.68-18.38,10.72-25.53,6.13-36.77,6.13-40.34-45.96-.51-55.15-2.04S121.02-1.48,108.26,.56s-24,3.57-35.23,2.04-30.64-.51-37.28,0S1.53,3.62,1.53,3.62Z"/><text class="cls-1" transform="translate(58.54 111.12)"><tspan x="0" y="0">Barbecue</tspan></text></g></g></svg>