<?xml version="1.0" encoding="UTF-8"?><svg id="Layer_2" xmlns="http://www.w3.org/2000/svg" xmlns:xlink="http://www.w3.org/1999/xlink" viewBox="0 0 206.43 369.94"><defs><style>.cls-1{fill:#fff;font-family:Bauhaus93, 'Bauhaus 93';font-size:30px;}.cls-2{fill:#808285;stroke:#808285;stroke-miterlimit:10;stroke-width:5px;}.cls-3{fill:url(#linear-gradient);}</style><linearGradient id="linear-gradient" x1="0" y1="183.44" x2="206.43" y2="183.44" gradientUnits="userSpaceOnUse"><stop offset="0" stop-color="#c5352d"/><stop offset=".04" stop-color="#cb312b"/><stop offset=".21" stop-color="#dd2527"/><stop offset=".38" stop-color="#e91e24"/><stop offset=".56" stop-color="#ed1c24"/><stop offset="1" stop-color="#ef4623"/></linearGradient></defs><g id="Sodavand"><g><g><path class="cls-2" d="M185.68,362.67c0,1.32-.53,2.51-1.4,3.38-.86,.86-2.05,1.39-3.37,1.39H24.66c-2.63,0-4.77-2.13-4.77-4.77,0-1.32,.53-2.5,1.4-3.37,.2-.2,.42-.38,.65-.54,.77-.54,1.71-.85,2.72-.85H180.91c2.64,0,4.77,2.13,4.77,4.76Z"/><polygon class="cls-3" points="206.43 48.41 206.43 342.93 180.91 357.91 24.66 357.91 0 342.93 0 48.41 23.13 8.97 181.43 8.97 206.43 48.41"/><path class="cls-2" d="M19.89,5.74c0-.89,.36-1.71,.95-2.29,.58-.59,1.4-.95,2.29-.95H181.43c1.78,0,3.23,1.45,3.23,3.24,0,.89-.36,1.7-.95,2.28-.58,.59-1.39,.95-2.28,.95H23.13c-1.79,0-3.24-1.45-3.24-3.23Z"/></g><text class="cls-1" transform="translate(29.77 141.56)"><tspan x="0" y="0">Coca Cola</tspan></text></g></g></svg>