<?xml version="1.0" encoding="UTF-8"?><svg id="Layer_2" xmlns="http://www.w3.org/2000/svg" xmlns:xlink="http://www.w3.org/1999/xlink" viewBox="0 0 700 900"><defs><style>.cls-1{fill:url(#Ikke-navngivet_forløb_140);}.cls-2{fill:url(#Ikke-navngivet_forløb_128);}.cls-3{fill:url(#Ikke-navngivet_forløb_109-2);}.cls-4{fill:url(#Ikke-navngivet_forløb_135);}.cls-5{fill:url(#Ikke-navngivet_forløb_109);}</style><linearGradient id="Ikke-navngivet_forløb_135" x1="17.15" y1="305.57" x2="462.02" y2="305.57" gradientUnits="userSpaceOnUse"><stop offset="0" stop-color="#be1622"/><stop offset="1" stop-color="#a01622"/></linearGradient><linearGradient id="Ikke-navngivet_forløb_140" x1="17.15" y1="333.95" x2="462.02" y2="333.95" gradientUnits="userSpaceOnUse"><stop offset="0" stop-color="#ca9e67"/><stop offset="1" stop-color="#b17f4a"/></linearGradient><linearGradient id="Ikke-navngivet_forløb_128" x1="0" y1="580.25" x2="700" y2="580.25" gradientUnits="userSpaceOnUse"><stop offset="0" stop-color="#e6332a"/><stop offset="1" stop-color="#be1622"/></linearGradient><linearGradient id="Ikke-navngivet_forløb_109" x1="243.73" y1="333.59" x2="243.73" y2="0" gradientUnits="userSpaceOnUse"><stop offset="0" stop-color="#dadada" stop-opacity="0"/><stop offset="0" stop-color="#dadada" stop-opacity="0"/><stop offset=".11" stop-color="#dadada" stop-opacity=".24"/><stop offset=".21" stop-color="#dadada" stop-opacity=".44"/><stop offset=".32" stop-color="#dadada" stop-opacity=".61"/><stop offset=".44" stop-color="#dadada" stop-opacity=".75"/><stop offset=".56" stop-color="#dadada" stop-opacity=".86"/><stop offset=".69" stop-color="#dadada" stop-opacity=".94"/><stop offset=".83" stop-color="#dadada" stop-opacity=".99"/><stop offset="1" stop-color="#dadada"/></linearGradient><linearGradient id="Ikke-navngivet_forløb_109-2" x1="333.48" y1="333.52" x2="333.48" y2="200.2" xlink:href="#Ikke-navngivet_forløb_109"/></defs><g id="Lag_1"><g><g id="Qn0mkL"><g><path class="cls-4" d="M239.02,347.44c-58.25-.22-116.31-2.85-173.32-15.7-12.35-2.79-24.32-7.48-36.12-12.13-6.21-2.44-12.67-6.3-12.43-14.15,.22-7.37,6.32-11.43,12.4-13.36,19.49-6.21,38.96-13.16,59.01-16.91,65.7-12.26,132.32-12.72,198.83-10.49,42.18,1.41,84.41,5.11,125.56,15.27,13.05,3.22,26.06,7.6,38.11,13.39,14.69,7.07,14.46,17.3,.24,25.32-18.62,10.5-39.51,14.35-60.33,17.79-50.27,8.29-100.98,11.32-151.94,10.98Z"/><path class="cls-1" d="M239.02,375.83c-58.25-.22-116.31-2.85-173.32-15.7-12.35-2.79-24.32-7.48-36.12-12.13-6.21-2.44-12.67-6.3-12.43-14.15,.22-7.37,6.32-11.43,12.4-13.36,19.49-6.21,38.96-13.16,59.01-16.91,65.7-12.26,132.32-12.72,198.83-10.49,42.18,1.41,84.41,5.11,125.56,15.27,13.05,3.22,26.06,7.6,38.11,13.39,14.69,7.07,14.46,17.3,.24,25.32-18.62,10.5-39.51,14.35-60.33,17.79-50.27,8.29-100.98,11.32-151.94,10.98Z"/><path class="cls-2" d="M1.87,564.17c0-81.8,.19-163.61-.17-245.41-.07-15.12,7-24.06,20.29-30.27,26.55-12.4,54.84-17.89,83.84-20.16,31.69-2.49,63.43-4.57,95.18-6.08,24.74-1.18,49.57-2.2,74.31-1.54,30.46,.82,60.86,3.63,91.3,5.28,23.17,1.26,45.31,7.05,67.01,14.38,9.27,3.13,18.3,7.63,26.47,12.92,10.75,6.96,16.89,17.16,16.28,30.32-.38,8.37-.48,16.77-1.29,25.1-1.71,17.78,2.46,22.4,21.08,22.22,16.44-.16,32.97,.51,49.3-.93,31.61-2.8,56.93,9.98,79.91,28.76,52.63,43.02,74.72,99.35,74.62,165.02-.08,49.67-12.31,96-40.43,137.95-19.02,28.38-43.95,50.45-75.54,64.39-26.31,11.6-54.39,13.37-82.89,8.85-5.91-.94-11.9-1.56-17.88-2-6.89-.5-11.07,2.86-11.67,9.52-.84,9.35-1.66,18.74-1.68,28.12-.05,24.7-10.12,41.67-34.14,52.94-47.24,22.16-96.99,31.82-148.74,35.46-40.08,2.82-79.7-1.03-119.48-4.18-36.64-2.91-72.41-9.85-106.8-22.08-14.46-5.14-28.23-13.21-40.84-21.95C6.29,841.36-.03,826.94,0,810.42c.1-48.29,.37-96.57,.48-144.86,.08-33.8,.02-67.59,.02-101.39,.46,0,.91,0,1.37,0Zm467.19,70.15c.35,.01,.71,.02,1.06,.03,0,15.75-.06,31.5,.03,47.25,.03,5.9,.7,11.31,6.33,15.52,6.07,4.54,11.91,9.72,16.63,15.56,7.69,9.5,17.36,14.98,29.28,17.55,23.26,5.01,41.86-4.89,59.29-17.71,51.03-37.54,77.62-87.29,77.13-149.91-.28-35.87-5.13-70.83-23.76-102.89-21.34-36.73-68.74-53.58-107.27-35.78-14.85,6.86-27.45,18.24-41.36,27.12-8.31,5.3-11.34,12.56-11.65,21.82-1.8,53.81-3.78,107.62-5.71,161.43ZM239.02,347.44c50.96,.34,101.67-2.69,151.94-10.98,20.82-3.43,41.71-7.29,60.33-17.79,14.22-8.02,14.46-18.25-.24-25.32-12.04-5.79-25.06-10.17-38.11-13.39-41.15-10.17-83.38-13.86-125.56-15.27-66.51-2.23-133.13-1.78-198.83,10.49-20.05,3.74-39.52,10.7-59.01,16.91-6.08,1.94-12.18,6-12.4,13.36-.24,7.85,6.22,11.71,12.43,14.15,11.8,4.64,23.77,9.34,36.12,12.13,57.01,12.86,115.07,15.48,173.32,15.7Z"/></g></g><g><path class="cls-5" d="M150.37,333.59s-133.36-3.7-129.73-61.58c3.63-57.88,302.88-79.86,308.48-142.16,5.6-62.3-89.52-124-89.52-124,0,0,234.65-38.2,227.12,80.59-7.53,118.79-255.13,143.64-316.34,247.14Z"/><path class="cls-3" d="M211.93,331.18s29.01-60.31,106.32-62.91c57.43-1.93,117.79-68.06,117.79-68.06,0,0,43.12,80.23-.6,111.73-43.73,31.49-223.51,19.24-223.51,19.24Z"/></g></g></g></svg>