<?xml version="1.0" standalone="no"?><svg xmlns:xlink="http://www.w3.org/1999/xlink" xmlns="http://www.w3.org/2000/svg" viewBox="0 0 1000 562.4989166045519" preserveAspectRatio="xMaxYMax slice"><g transform="scale(0.8667163584045485)"><rect x="0" y="0" width="1225.888888888889" height="649" fill="#ffffff"/><rect x="450.69444444444446" y="90.13888888888889" width="36.05555555555556" height="36.05555555555556" fill="#ffffff"/><rect x="468.72" y="90.14" width="18.03" height="18.03" fill="#dedbdb"/><rect x="468.72" y="90.14" width="18.03" height="18.03" fill="#f8f8f8"/><rect x="522.8055555555557" y="90.13888888888889" width="36.05555555555556" height="36.05555555555556" fill="#ffffff"/><rect x="522.81" y="90.14" width="18.03" height="18.03" fill="#dcd8d8"/><g transform="translate(522.81,90.14) scale(0.9015000000000001) rotate(0)"><path fill-rule="evenodd" clip-rule="evenodd" d="M10 20C15.5228 20 20 15.5228 20 10C20 4.47715 15.5228 0 10 0C4.47715 0 0 4.47715 0 10C0 15.5228 4.47715 20 10 20ZM10 17C13.866 17 17 13.866 17 10C17 6.13401 13.866 3 10 3C6.13401 3 3 6.13401 3 10C3 13.866 6.13401 17 10 17Z" fill="#fefefe"/></g><rect x="522.81" y="162.25" width="36.06" height="36.06" fill="#ffffff"/><rect x="522.81" y="162.25" width="36.06" height="36.06" fill="#eeecec"/><rect x="739.14" y="162.25" width="36.06" height="36.06" fill="#f8f8f8"/><g transform="translate(739.14,162.25) scale(1.8030000000000002) rotate(0)"><path fill-rule="evenodd" clip-rule="evenodd" d="M10 20C15.5228 20 20 15.5228 20 10C20 4.47715 15.5228 0 10 0C4.47715 0 0 4.47715 0 10C0 15.5228 4.47715 20 10 20ZM10 17C13.866 17 17 13.866 17 10C17 6.13401 13.866 3 10 3C6.13401 3 3 6.13401 3 10C3 13.866 6.13401 17 10 17Z" fill="#f8f8f8"/></g><rect x="955.47" y="162.25" width="36.06" height="36.06" fill="#ffffff"/><g transform="translate(955.47,162.25) scale(1.8030000000000002) rotate(0)"><path fill-rule="evenodd" clip-rule="evenodd" d="M10 20C15.5228 20 20 15.5228 20 10C20 4.47715 15.5228 0 10 0C4.47715 0 0 4.47715 0 10C0 15.5228 4.47715 20 10 20ZM10 17C13.866 17 17 13.866 17 10C17 6.13401 13.866 3 10 3C6.13401 3 3 6.13401 3 10C3 13.866 6.13401 17 10 17Z" fill="#f9f9f9"/></g><rect x="1099.6944444444446" y="162.25" width="36.05555555555556" height="36.05555555555556" fill="#ffffff"/><rect x="1099.69" y="162.25" width="18.03" height="18.03" fill="#fefefe"/><rect x="1099.69" y="162.25" width="18.03" height="18.03" fill="#fafafa"/><rect x="162.25" y="234.36111111111111" width="36.05555555555556" height="36.05555555555556" fill="#ffffff"/><rect x="162.25" y="252.39" width="18.03" height="18.03" fill="#eeeeee"/><polygon points="180.28,252.39 180.28,270.41999999999996 162.25,270.41999999999996" fill="#f9f9f9"/><rect x="180.28" y="252.39" width="18.03" height="18.03" fill="#fdfdfd"/><rect x="180.28" y="252.39" width="18.03" height="18.03" fill="#d2cece"/><rect x="306.47" y="234.36" width="36.06" height="36.06" fill="#e6e4e4"/><rect x="306.47" y="234.36" width="36.06" height="36.06" fill="#e7e5e5"/><rect x="594.9166666666667" y="234.36111111111111" width="36.05555555555556" height="36.05555555555556" fill="#ffffff"/><rect x="594.92" y="234.36" width="18.03" height="18.03" fill="#f8f8f8"/><g transform="translate(594.92,234.36) scale(0.9015000000000001) rotate(0)"><path fill-rule="evenodd" clip-rule="evenodd" d="M10 20C15.5228 20 20 15.5228 20 10C20 4.47715 15.5228 0 10 0C4.47715 0 0 4.47715 0 10C0 15.5228 4.47715 20 10 20ZM10 17C13.866 17 17 13.866 17 10C17 6.13401 13.866 3 10 3C6.13401 3 3 6.13401 3 10C3 13.866 6.13401 17 10 17Z" fill="#f0f0f0"/></g><rect x="594.92" y="252.39" width="18.03" height="18.03" fill="#fefefe"/><rect x="594.92" y="252.39" width="18.03" height="18.03" fill="#e9e9e9"/><rect x="883.36" y="234.36" width="36.06" height="36.06" fill="#efefef"/><polygon points="919.4200000000001,234.36 919.4200000000001,270.42 883.36,270.42" fill="#e7e5e5"/><rect x="18.03" y="306.47" width="36.06" height="36.06" fill="#eceaea"/><g transform="translate(18.03,306.47) scale(1.8030000000000002) rotate(0)"><path fill-rule="evenodd" clip-rule="evenodd" d="M10 20C15.5228 20 20 15.5228 20 10C20 4.47715 15.5228 0 10 0C4.47715 0 0 4.47715 0 10C0 15.5228 4.47715 20 10 20ZM10 17C13.866 17 17 13.866 17 10C17 6.13401 13.866 3 10 3C6.13401 3 3 6.13401 3 10C3 13.866 6.13401 17 10 17Z" fill="#faf9f9"/></g><rect x="306.47" y="306.47" width="36.06" height="36.06" fill="#d5d2d2"/><rect x="306.47" y="306.47" width="36.06" height="36.06" fill="#f5f4f4"/><rect x="450.69" y="306.47" width="36.06" height="36.06" fill="#f0f0f0"/><rect x="450.69" y="306.47" width="36.06" height="36.06" fill="#dad7d7"/><rect x="522.81" y="306.47" width="36.06" height="36.06" fill="#ebebeb"/><rect x="522.81" y="306.47" width="36.06" height="36.06" fill="#dad7d7"/><rect x="594.92" y="306.47" width="36.06" height="36.06" fill="#fafafa"/><rect x="594.92" y="306.47" width="36.06" height="36.06" fill="#d4d1d1"/><rect x="811.25" y="306.47" width="36.06" height="36.06" fill="#f2f2f2"/><polygon points="811.25,306.47 847.31,306.47 847.31,342.53000000000003" fill="#d6d2d2"/><rect x="883.36" y="306.47" width="36.06" height="36.06" fill="#f5f5f5"/><rect x="883.36" y="306.47" width="36.06" height="36.06" fill="#fdfdfd"/><rect x="955.4722222222223" y="306.47222222222223" width="36.05555555555556" height="36.05555555555556" fill="#ffffff"/><rect x="973.5" y="306.47" width="18.03" height="18.03" fill="#eeecec"/><rect x="973.5" y="306.47" width="18.03" height="18.03" fill="#d7d4d4"/><rect x="955.47" y="324.5" width="18.03" height="18.03" fill="#ffffff"/><rect x="955.47" y="324.5" width="18.03" height="18.03" fill="#f1efef"/><rect x="1171.81" y="306.47" width="36.06" height="36.06" fill="#f8f8f8"/><rect x="1171.81" y="306.47" width="36.06" height="36.06" fill="#efefef"/><rect x="18.02777777777778" y="378.5833333333333" width="36.05555555555556" height="36.05555555555556" fill="#ffffff"/><rect x="36.06" y="378.58" width="18.03" height="18.03" fill="#f6f6f6"/><g transform="translate(36.06,378.58) scale(0.9015000000000001) rotate(0)"><path fill-rule="evenodd" clip-rule="evenodd" d="M10 20C15.5228 20 20 15.5228 20 10C20 4.47715 15.5228 0 10 0C4.47715 0 0 4.47715 0 10C0 15.5228 4.47715 20 10 20ZM10 17C13.866 17 17 13.866 17 10C17 6.13401 13.866 3 10 3C6.13401 3 3 6.13401 3 10C3 13.866 6.13401 17 10 17Z" fill="#ececec"/></g><rect x="18.03" y="396.61" width="18.03" height="18.03" fill="#fcfcfc"/><polygon points="18.03,396.61 36.06,396.61 18.03,414.64" fill="#fdfdfd"/><rect x="90.13888888888889" y="378.5833333333333" width="36.05555555555556" height="36.05555555555556" fill="#ffffff"/><rect x="90.14" y="378.58" width="18.03" height="18.03" fill="#fdfdfd"/><g transform="translate(90.14,378.58) scale(0.9015000000000001) rotate(0)"><path fill-rule="evenodd" clip-rule="evenodd" d="M10 20C15.5228 20 20 15.5228 20 10C20 4.47715 15.5228 0 10 0C4.47715 0 0 4.47715 0 10C0 15.5228 4.47715 20 10 20ZM10 17C13.866 17 17 13.866 17 10C17 6.13401 13.866 3 10 3C6.13401 3 3 6.13401 3 10C3 13.866 6.13401 17 10 17Z" fill="#e6e4e4"/></g><rect x="108.17" y="378.58" width="18.03" height="18.03" fill="#e7e5e5"/><polygon points="108.17,378.58 126.2,378.58 126.2,396.61" fill="#efeeee"/><rect x="162.25" y="378.58" width="36.06" height="36.06" fill="#f3f3f3"/><rect x="162.25" y="378.58" width="36.06" height="36.06" fill="#d3d0d0"/><rect x="234.36" y="378.58" width="36.06" height="36.06" fill="#e1dede"/><g transform="translate(234.36,378.58) scale(1.8030000000000002) rotate(0)"><path fill-rule="evenodd" clip-rule="evenodd" d="M10 20C15.5228 20 20 15.5228 20 10C20 4.47715 15.5228 0 10 0C4.47715 0 0 4.47715 0 10C0 15.5228 4.47715 20 10 20ZM10 17C13.866 17 17 13.866 17 10C17 6.13401 13.866 3 10 3C6.13401 3 3 6.13401 3 10C3 13.866 6.13401 17 10 17Z" fill="#e4e2e2"/></g><rect x="306.47" y="378.58" width="36.06" height="36.06" fill="#f0f0f0"/><polygon points="306.47,378.58 342.53000000000003,378.58 342.53000000000003,414.64" fill="#f4f4f4"/><rect x="378.58" y="378.58" width="36.06" height="36.06" fill="#f9f9f9"/><polygon points="414.64,378.58 414.64,414.64 378.58,414.64" fill="#ebe9e9"/><rect x="450.69" y="378.58" width="36.06" height="36.06" fill="#d8d4d4"/><g transform="translate(450.69,378.58) scale(1.8030000000000002) rotate(0)"><path fill-rule="evenodd" clip-rule="evenodd" d="M10 20C15.5228 20 20 15.5228 20 10C20 4.47715 15.5228 0 10 0C4.47715 0 0 4.47715 0 10C0 15.5228 4.47715 20 10 20ZM10 17C13.866 17 17 13.866 17 10C17 6.13401 13.866 3 10 3C6.13401 3 3 6.13401 3 10C3 13.866 6.13401 17 10 17Z" fill="#d8d4d4"/></g><rect x="522.81" y="378.58" width="36.06" height="36.06" fill="#f3f2f2"/><polygon points="558.8699999999999,378.58 558.8699999999999,414.64 522.81,414.64" fill="#f2f2f2"/><rect x="594.9166666666667" y="378.5833333333333" width="36.05555555555556" height="36.05555555555556" fill="#ffffff"/><rect x="594.92" y="378.58" width="18.03" height="18.03" fill="#dad7d7"/><polygon points="594.92,378.58 612.9499999999999,378.58 594.92,396.61" fill="#e3e0e0"/><rect x="612.94" y="378.58" width="18.03" height="18.03" fill="#dedbdb"/><rect x="612.94" y="378.58" width="18.03" height="18.03" fill="#f5f4f4"/><rect x="594.92" y="396.61" width="18.03" height="18.03" fill="#ebebeb"/><polygon points="594.92,396.61 612.9499999999999,414.64 594.92,414.64" fill="#f4f3f3"/><rect x="667.03" y="378.58" width="36.06" height="36.06" fill="#f4f4f4"/><polygon points="703.0899999999999,378.58 703.0899999999999,414.64 667.03,414.64" fill="#f2f1f1"/><rect x="739.1388888888889" y="378.5833333333333" width="36.05555555555556" height="36.05555555555556" fill="#ffffff"/><rect x="739.14" y="378.58" width="18.03" height="18.03" fill="#d9d6d6"/><polygon points="757.17,378.58 757.17,396.61 739.14,396.61" fill="#f7f7f7"/><rect x="757.17" y="378.58" width="18.03" height="18.03" fill="#f7f7f7"/><polygon points="757.17,378.58 775.1999999999999,378.58 757.17,396.61" fill="#e6e4e4"/><rect x="739.14" y="396.61" width="18.03" height="18.03" fill="#dfdcdc"/><g transform="translate(739.14,396.61) scale(0.9015000000000001) rotate(0)"><path fill-rule="evenodd" clip-rule="evenodd" d="M10 20C15.5228 20 20 15.5228 20 10C20 4.47715 15.5228 0 10 0C4.47715 0 0 4.47715 0 10C0 15.5228 4.47715 20 10 20ZM10 17C13.866 17 17 13.866 17 10C17 6.13401 13.866 3 10 3C6.13401 3 3 6.13401 3 10C3 13.866 6.13401 17 10 17Z" fill="#f1f1f1"/></g><rect x="757.17" y="396.61" width="18.03" height="18.03" fill="#e3e0e0"/><rect x="757.17" y="396.61" width="18.03" height="18.03" fill="#e6e4e4"/><rect x="811.2500000000001" y="378.5833333333333" width="36.05555555555556" height="36.05555555555556" fill="#ffffff"/><rect x="829.28" y="378.58" width="18.03" height="18.03" fill="#d4d0d0"/><g transform="translate(829.28,378.58) scale(0.9015000000000001) rotate(0)"><path fill-rule="evenodd" clip-rule="evenodd" d="M10 20C15.5228 20 20 15.5228 20 10C20 4.47715 15.5228 0 10 0C4.47715 0 0 4.47715 0 10C0 15.5228 4.47715 20 10 20ZM10 17C13.866 17 17 13.866 17 10C17 6.13401 13.866 3 10 3C6.13401 3 3 6.13401 3 10C3 13.866 6.13401 17 10 17Z" fill="#eaeaea"/></g><rect x="811.25" y="396.61" width="18.03" height="18.03" fill="#dddada"/><rect x="811.25" y="396.61" width="18.03" height="18.03" fill="#f7f7f7"/><rect x="883.36" y="378.58" width="36.06" height="36.06" fill="#eaeaea"/><g transform="translate(883.36,378.58) scale(1.8030000000000002) rotate(0)"><path fill-rule="evenodd" clip-rule="evenodd" d="M10 20C15.5228 20 20 15.5228 20 10C20 4.47715 15.5228 0 10 0C4.47715 0 0 4.47715 0 10C0 15.5228 4.47715 20 10 20ZM10 17C13.866 17 17 13.866 17 10C17 6.13401 13.866 3 10 3C6.13401 3 3 6.13401 3 10C3 13.866 6.13401 17 10 17Z" fill="#f7f6f6"/></g><rect x="955.4722222222223" y="378.5833333333333" width="36.05555555555556" height="36.05555555555556" fill="#ffffff"/><rect x="955.47" y="378.58" width="18.03" height="18.03" fill="#efefef"/><g transform="translate(955.47,378.58) scale(0.9015000000000001) rotate(0)"><path fill-rule="evenodd" clip-rule="evenodd" d="M10 20C15.5228 20 20 15.5228 20 10C20 4.47715 15.5228 0 10 0C4.47715 0 0 4.47715 0 10C0 15.5228 4.47715 20 10 20ZM10 17C13.866 17 17 13.866 17 10C17 6.13401 13.866 3 10 3C6.13401 3 3 6.13401 3 10C3 13.866 6.13401 17 10 17Z" fill="#e3e0e0"/></g><rect x="973.5" y="396.61" width="18.03" height="18.03" fill="#edebeb"/><g transform="translate(973.5,396.61) scale(0.9015000000000001) rotate(0)"><path fill-rule="evenodd" clip-rule="evenodd" d="M10 20C15.5228 20 20 15.5228 20 10C20 4.47715 15.5228 0 10 0C4.47715 0 0 4.47715 0 10C0 15.5228 4.47715 20 10 20ZM10 17C13.866 17 17 13.866 17 10C17 6.13401 13.866 3 10 3C6.13401 3 3 6.13401 3 10C3 13.866 6.13401 17 10 17Z" fill="#eeeeee"/></g><rect x="1099.6944444444446" y="378.5833333333333" width="36.05555555555556" height="36.05555555555556" fill="#ffffff"/><rect x="1099.69" y="396.61" width="18.03" height="18.03" fill="#d7d3d3"/><rect x="1099.69" y="396.61" width="18.03" height="18.03" fill="#f4f3f3"/><rect x="1117.72" y="396.61" width="18.03" height="18.03" fill="#fdfdfd"/><rect x="1117.72" y="396.61" width="18.03" height="18.03" fill="#f8f8f8"/><rect x="1171.81" y="378.58" width="36.06" height="36.06" fill="#eae8e8"/><rect x="1171.81" y="378.58" width="36.06" height="36.06" fill="#dddada"/><rect x="18.03" y="450.69" width="36.06" height="36.06" fill="#dfdcdc"/><polygon points="54.09,450.69 54.09,486.75 18.03,486.75" fill="#f6f6f6"/><rect x="90.13888888888889" y="450.69444444444446" width="36.05555555555556" height="36.05555555555556" fill="#ffffff"/><rect x="108.17" y="450.69" width="18.03" height="18.03" fill="#dbd8d8"/><g transform="translate(108.17,450.69) scale(0.9015000000000001) rotate(0)"><path fill-rule="evenodd" clip-rule="evenodd" d="M10 20C15.5228 20 20 15.5228 20 10C20 4.47715 15.5228 0 10 0C4.47715 0 0 4.47715 0 10C0 15.5228 4.47715 20 10 20ZM10 17C13.866 17 17 13.866 17 10C17 6.13401 13.866 3 10 3C6.13401 3 3 6.13401 3 10C3 13.866 6.13401 17 10 17Z" fill="#ebebeb"/></g><rect x="90.14" y="468.72" width="18.03" height="18.03" fill="#d2cece"/><polygon points="108.17,468.72 108.17,486.75 90.14,486.75" fill="#f4f4f4"/><rect x="108.17" y="468.72" width="18.03" height="18.03" fill="#f4f4f4"/><rect x="108.17" y="468.72" width="18.03" height="18.03" fill="#e4e1e1"/><rect x="162.25" y="450.69" width="36.06" height="36.06" fill="#dcd9d9"/><g transform="translate(162.25,450.69) scale(1.8030000000000002) rotate(0)"><path fill-rule="evenodd" clip-rule="evenodd" d="M10 20C15.5228 20 20 15.5228 20 10C20 4.47715 15.5228 0 10 0C4.47715 0 0 4.47715 0 10C0 15.5228 4.47715 20 10 20ZM10 17C13.866 17 17 13.866 17 10C17 6.13401 13.866 3 10 3C6.13401 3 3 6.13401 3 10C3 13.866 6.13401 17 10 17Z" fill="#f9f9f9"/></g><rect x="234.36" y="450.69" width="36.06" height="36.06" fill="#f9f8f8"/><rect x="234.36" y="450.69" width="36.06" height="36.06" fill="#e3e0e0"/><rect x="306.47" y="450.69" width="36.06" height="36.06" fill="#d7d3d3"/><rect x="306.47" y="450.69" width="36.06" height="36.06" fill="#f3f2f2"/><rect x="378.58" y="450.69" width="36.06" height="36.06" fill="#f7f6f6"/><rect x="378.58" y="450.69" width="36.06" height="36.06" fill="#d6d3d3"/><rect x="450.69" y="450.69" width="36.06" height="36.06" fill="#e0dddd"/><rect x="450.69" y="450.69" width="36.06" height="36.06" fill="#e7e5e5"/><rect x="522.8055555555557" y="450.69444444444446" width="36.05555555555556" height="36.05555555555556" fill="#ffffff"/><rect x="522.81" y="450.69" width="18.03" height="18.03" fill="#f1f1f1"/><rect x="522.81" y="450.69" width="18.03" height="18.03" fill="#f4f3f3"/><rect x="522.81" y="468.72" width="18.03" height="18.03" fill="#f7f7f7"/><polygon points="522.81,468.72 540.8399999999999,468.72 540.8399999999999,486.75" fill="#f3f2f2"/><rect x="540.83" y="468.72" width="18.03" height="18.03" fill="#f8f8f8"/><rect x="540.83" y="468.72" width="18.03" height="18.03" fill="#f4f4f4"/><rect x="594.92" y="450.69" width="36.06" height="36.06" fill="#eaeaea"/><polygon points="594.92,450.69 630.98,486.75 594.92,486.75" fill="#f7f7f7"/><rect x="667.03" y="450.69" width="36.06" height="36.06" fill="#efefef"/><rect x="667.03" y="450.69" width="36.06" height="36.06" fill="#f6f6f6"/><rect x="739.1388888888889" y="450.69444444444446" width="36.05555555555556" height="36.05555555555556" fill="#ffffff"/><rect x="739.14" y="450.69" width="18.03" height="18.03" fill="#f9f9f9"/><rect x="739.14" y="450.69" width="18.03" height="18.03" fill="#ebebeb"/><rect x="739.14" y="468.72" width="18.03" height="18.03" fill="#f2f2f2"/><rect x="739.14" y="468.72" width="18.03" height="18.03" fill="#e0dddd"/><rect x="811.25" y="450.69" width="36.06" height="36.06" fill="#d7d3d3"/><g transform="translate(811.25,450.69) scale(1.8030000000000002) rotate(0)"><path fill-rule="evenodd" clip-rule="evenodd" d="M10 20C15.5228 20 20 15.5228 20 10C20 4.47715 15.5228 0 10 0C4.47715 0 0 4.47715 0 10C0 15.5228 4.47715 20 10 20ZM10 17C13.866 17 17 13.866 17 10C17 6.13401 13.866 3 10 3C6.13401 3 3 6.13401 3 10C3 13.866 6.13401 17 10 17Z" fill="#eae8e8"/></g><rect x="883.36" y="450.69" width="36.06" height="36.06" fill="#dcd9d9"/><g transform="translate(883.36,450.69) scale(1.8030000000000002) rotate(0)"><path fill-rule="evenodd" clip-rule="evenodd" d="M10 20C15.5228 20 20 15.5228 20 10C20 4.47715 15.5228 0 10 0C4.47715 0 0 4.47715 0 10C0 15.5228 4.47715 20 10 20ZM10 17C13.866 17 17 13.866 17 10C17 6.13401 13.866 3 10 3C6.13401 3 3 6.13401 3 10C3 13.866 6.13401 17 10 17Z" fill="#e7e5e5"/></g><rect x="955.47" y="450.69" width="36.06" height="36.06" fill="#fefefe"/><polygon points="991.53,450.69 991.53,486.75 955.47,486.75" fill="#d1cdcd"/><rect x="1027.5833333333335" y="450.69444444444446" width="36.05555555555556" height="36.05555555555556" fill="#ffffff"/><rect x="1027.58" y="450.69" width="18.03" height="18.03" fill="#ececec"/><rect x="1027.58" y="450.69" width="18.03" height="18.03" fill="#faf9f9"/><rect x="1045.61" y="450.69" width="18.03" height="18.03" fill="#d1cdcd"/><rect x="1045.61" y="450.69" width="18.03" height="18.03" fill="#fdfdfd"/><rect x="1171.81" y="450.69" width="36.06" height="36.06" fill="#f4f3f3"/><polygon points="1171.81,450.69 1207.87,486.75 1171.81,486.75" fill="#f2f1f1"/><rect x="18.03" y="522.81" width="36.06" height="36.06" fill="#efefef"/><polygon points="18.03,522.81 54.09,522.81 54.09,558.8699999999999" fill="#ededed"/><rect x="90.13888888888889" y="522.8055555555557" width="36.05555555555556" height="36.05555555555556" fill="#ffffff"/><rect x="90.14" y="522.81" width="18.03" height="18.03" fill="#f4f4f4"/><g transform="translate(90.14,522.81) scale(0.9015000000000001) rotate(0)"><path fill-rule="evenodd" clip-rule="evenodd" d="M10 20C15.5228 20 20 15.5228 20 10C20 4.47715 15.5228 0 10 0C4.47715 0 0 4.47715 0 10C0 15.5228 4.47715 20 10 20ZM10 17C13.866 17 17 13.866 17 10C17 6.13401 13.866 3 10 3C6.13401 3 3 6.13401 3 10C3 13.866 6.13401 17 10 17Z" fill="#dad6d6"/></g><rect x="108.17" y="522.81" width="18.03" height="18.03" fill="#fbfafa"/><rect x="108.17" y="522.81" width="18.03" height="18.03" fill="#ebe9e9"/><rect x="90.14" y="540.83" width="18.03" height="18.03" fill="#d9d6d6"/><rect x="90.14" y="540.83" width="18.03" height="18.03" fill="#ffffff"/><rect x="108.17" y="540.83" width="18.03" height="18.03" fill="#f1f0f0"/><rect x="108.17" y="540.83" width="18.03" height="18.03" fill="#f5f4f4"/><rect x="162.25" y="522.8055555555557" width="36.05555555555556" height="36.05555555555556" fill="#ffffff"/><rect x="162.25" y="522.81" width="18.03" height="18.03" fill="#f3f2f2"/><rect x="162.25" y="522.81" width="18.03" height="18.03" fill="#f1efef"/><rect x="180.28" y="522.81" width="18.03" height="18.03" fill="#dbd8d8"/><g transform="translate(180.28,522.81) scale(0.9015000000000001) rotate(0)"><path fill-rule="evenodd" clip-rule="evenodd" d="M10 20C15.5228 20 20 15.5228 20 10C20 4.47715 15.5228 0 10 0C4.47715 0 0 4.47715 0 10C0 15.5228 4.47715 20 10 20ZM10 17C13.866 17 17 13.866 17 10C17 6.13401 13.866 3 10 3C6.13401 3 3 6.13401 3 10C3 13.866 6.13401 17 10 17Z" fill="#ebe9e9"/></g><rect x="162.25" y="540.83" width="18.03" height="18.03" fill="#fbfbfb"/><polygon points="180.28,540.83 180.28,558.86 162.25,558.86" fill="#ebebeb"/><rect x="180.28" y="540.83" width="18.03" height="18.03" fill="#fafafa"/><polygon points="180.28,540.83 198.31,558.86 180.28,558.86" fill="#e4e1e1"/><rect x="234.36111111111111" y="522.8055555555557" width="36.05555555555556" height="36.05555555555556" fill="#ffffff"/><rect x="234.36" y="522.81" width="18.03" height="18.03" fill="#f9f9f9"/><polygon points="234.36,522.81 252.39000000000001,540.8399999999999 234.36,540.8399999999999" fill="#f2f2f2"/><rect x="252.39" y="522.81" width="18.03" height="18.03" fill="#eae8e8"/><rect x="252.39" y="522.81" width="18.03" height="18.03" fill="#ecebeb"/><rect x="252.39" y="540.83" width="18.03" height="18.03" fill="#eceaea"/><rect x="252.39" y="540.83" width="18.03" height="18.03" fill="#e1dfdf"/><rect x="306.47" y="522.81" width="36.06" height="36.06" fill="#f1f0f0"/><g transform="translate(306.47,522.81) scale(1.8030000000000002) rotate(0)"><path fill-rule="evenodd" clip-rule="evenodd" d="M10 20C15.5228 20 20 15.5228 20 10C20 4.47715 15.5228 0 10 0C4.47715 0 0 4.47715 0 10C0 15.5228 4.47715 20 10 20ZM10 17C13.866 17 17 13.866 17 10C17 6.13401 13.866 3 10 3C6.13401 3 3 6.13401 3 10C3 13.866 6.13401 17 10 17Z" fill="#ececec"/></g><rect x="522.81" y="522.81" width="36.06" height="36.06" fill="#e3e1e1"/><rect x="522.81" y="522.81" width="36.06" height="36.06" fill="#f2f1f1"/><rect x="594.92" y="522.81" width="36.06" height="36.06" fill="#e7e5e5"/><g transform="translate(594.92,522.81) scale(1.8030000000000002) rotate(0)"><path fill-rule="evenodd" clip-rule="evenodd" d="M10 20C15.5228 20 20 15.5228 20 10C20 4.47715 15.5228 0 10 0C4.47715 0 0 4.47715 0 10C0 15.5228 4.47715 20 10 20ZM10 17C13.866 17 17 13.866 17 10C17 6.13401 13.866 3 10 3C6.13401 3 3 6.13401 3 10C3 13.866 6.13401 17 10 17Z" fill="#f4f3f3"/></g><rect x="667.03" y="522.81" width="36.06" height="36.06" fill="#fbfafa"/><g transform="translate(667.03,522.81) scale(1.8030000000000002) rotate(0)"><path fill-rule="evenodd" clip-rule="evenodd" d="M10 20C15.5228 20 20 15.5228 20 10C20 4.47715 15.5228 0 10 0C4.47715 0 0 4.47715 0 10C0 15.5228 4.47715 20 10 20ZM10 17C13.866 17 17 13.866 17 10C17 6.13401 13.866 3 10 3C6.13401 3 3 6.13401 3 10C3 13.866 6.13401 17 10 17Z" fill="#e1dfdf"/></g><rect x="739.14" y="522.81" width="36.06" height="36.06" fill="#fcfcfc"/><g transform="translate(739.14,522.81) scale(1.8030000000000002) rotate(0)"><path fill-rule="evenodd" clip-rule="evenodd" d="M10 20C15.5228 20 20 15.5228 20 10C20 4.47715 15.5228 0 10 0C4.47715 0 0 4.47715 0 10C0 15.5228 4.47715 20 10 20ZM10 17C13.866 17 17 13.866 17 10C17 6.13401 13.866 3 10 3C6.13401 3 3 6.13401 3 10C3 13.866 6.13401 17 10 17Z" fill="#f1f0f0"/></g><rect x="811.25" y="522.81" width="36.06" height="36.06" fill="#d7d3d3"/><g transform="translate(811.25,522.81) scale(1.8030000000000002) rotate(0)"><path fill-rule="evenodd" clip-rule="evenodd" d="M10 20C15.5228 20 20 15.5228 20 10C20 4.47715 15.5228 0 10 0C4.47715 0 0 4.47715 0 10C0 15.5228 4.47715 20 10 20ZM10 17C13.866 17 17 13.866 17 10C17 6.13401 13.866 3 10 3C6.13401 3 3 6.13401 3 10C3 13.866 6.13401 17 10 17Z" fill="#dddada"/></g><rect x="883.36" y="522.81" width="36.06" height="36.06" fill="#efeeee"/><rect x="883.36" y="522.81" width="36.06" height="36.06" fill="#f4f3f3"/><rect x="955.47" y="522.81" width="36.06" height="36.06" fill="#e4e2e2"/><polygon points="955.47,522.81 991.53,522.81 955.47,558.8699999999999" fill="#f4f4f4"/><rect x="1099.6944444444446" y="522.8055555555557" width="36.05555555555556" height="36.05555555555556" fill="#ffffff"/><rect x="1099.69" y="522.81" width="18.03" height="18.03" fill="#f3f3f3"/><polygon points="1099.69,522.81 1117.72,540.8399999999999 1099.69,540.8399999999999" fill="#eaeaea"/><rect x="1117.72" y="522.81" width="18.03" height="18.03" fill="#f8f8f8"/><g transform="translate(1117.72,522.81) scale(0.9015000000000001) rotate(0)"><path fill-rule="evenodd" clip-rule="evenodd" d="M10 20C15.5228 20 20 15.5228 20 10C20 4.47715 15.5228 0 10 0C4.47715 0 0 4.47715 0 10C0 15.5228 4.47715 20 10 20ZM10 17C13.866 17 17 13.866 17 10C17 6.13401 13.866 3 10 3C6.13401 3 3 6.13401 3 10C3 13.866 6.13401 17 10 17Z" fill="#f7f6f6"/></g><rect x="1099.69" y="540.83" width="18.03" height="18.03" fill="#f8f8f8"/><polygon points="1117.72,540.83 1117.72,558.86 1099.69,558.86" fill="#fefefe"/><rect x="1117.72" y="540.83" width="18.03" height="18.03" fill="#f6f5f5"/><g transform="translate(1117.72,540.83) scale(0.9015000000000001) rotate(0)"><path fill-rule="evenodd" clip-rule="evenodd" d="M10 20C15.5228 20 20 15.5228 20 10C20 4.47715 15.5228 0 10 0C4.47715 0 0 4.47715 0 10C0 15.5228 4.47715 20 10 20ZM10 17C13.866 17 17 13.866 17 10C17 6.13401 13.866 3 10 3C6.13401 3 3 6.13401 3 10C3 13.866 6.13401 17 10 17Z" fill="#ececec"/></g><rect x="1171.8055555555557" y="522.8055555555557" width="36.05555555555556" height="36.05555555555556" fill="#ffffff"/><rect x="1171.81" y="522.81" width="18.03" height="18.03" fill="#d7d4d4"/><polygon points="1189.84,522.81 1189.84,540.8399999999999 1171.81,540.8399999999999" fill="#ececec"/><rect x="1189.83" y="522.81" width="18.03" height="18.03" fill="#f9f8f8"/><rect x="1189.83" y="522.81" width="18.03" height="18.03" fill="#d2cece"/><rect x="1171.81" y="540.83" width="18.03" height="18.03" fill="#e7e5e5"/><g transform="translate(1171.81,540.83) scale(0.9015000000000001) rotate(0)"><path fill-rule="evenodd" clip-rule="evenodd" d="M10 20C15.5228 20 20 15.5228 20 10C20 4.47715 15.5228 0 10 0C4.47715 0 0 4.47715 0 10C0 15.5228 4.47715 20 10 20ZM10 17C13.866 17 17 13.866 17 10C17 6.13401 13.866 3 10 3C6.13401 3 3 6.13401 3 10C3 13.866 6.13401 17 10 17Z" fill="#fbfbfb"/></g><rect x="1189.83" y="540.83" width="18.03" height="18.03" fill="#e9e9e9"/><rect x="1189.83" y="540.83" width="18.03" height="18.03" fill="#e6e3e3"/><rect x="18.03" y="594.92" width="36.06" height="36.06" fill="#f6f6f6"/><g transform="translate(18.03,594.92) scale(1.8030000000000002) rotate(0)"><path fill-rule="evenodd" clip-rule="evenodd" d="M10 20C15.5228 20 20 15.5228 20 10C20 4.47715 15.5228 0 10 0C4.47715 0 0 4.47715 0 10C0 15.5228 4.47715 20 10 20ZM10 17C13.866 17 17 13.866 17 10C17 6.13401 13.866 3 10 3C6.13401 3 3 6.13401 3 10C3 13.866 6.13401 17 10 17Z" fill="#ebebeb"/></g><rect x="90.14" y="594.92" width="36.06" height="36.06" fill="#f8f8f8"/><polygon points="90.14,594.92 126.2,594.92 126.2,630.98" fill="#f9f8f8"/><rect x="162.25" y="594.9166666666667" width="36.05555555555556" height="36.05555555555556" fill="#ffffff"/><rect x="162.25" y="594.92" width="18.03" height="18.03" fill="#fafafa"/><polygon points="162.25,594.92 180.28,612.9499999999999 162.25,612.9499999999999" fill="#f5f4f4"/><rect x="180.28" y="594.92" width="18.03" height="18.03" fill="#f2f2f2"/><polygon points="180.28,594.92 198.31,612.9499999999999 180.28,612.9499999999999" fill="#e3e1e1"/><rect x="162.25" y="612.94" width="18.03" height="18.03" fill="#f5f5f5"/><rect x="162.25" y="612.94" width="18.03" height="18.03" fill="#ededed"/><rect x="180.28" y="612.94" width="18.03" height="18.03" fill="#f4f3f3"/><polygon points="180.28,612.94 198.31,612.94 198.31,630.97" fill="#e9e9e9"/><rect x="234.36" y="594.92" width="36.06" height="36.06" fill="#dbd7d7"/><g transform="translate(234.36,594.92) scale(1.8030000000000002) rotate(0)"><path fill-rule="evenodd" clip-rule="evenodd" d="M10 20C15.5228 20 20 15.5228 20 10C20 4.47715 15.5228 0 10 0C4.47715 0 0 4.47715 0 10C0 15.5228 4.47715 20 10 20ZM10 17C13.866 17 17 13.866 17 10C17 6.13401 13.866 3 10 3C6.13401 3 3 6.13401 3 10C3 13.866 6.13401 17 10 17Z" fill="#f3f2f2"/></g><rect x="306.47222222222223" y="594.9166666666667" width="36.05555555555556" height="36.05555555555556" fill="#ffffff"/><rect x="306.47" y="594.92" width="18.03" height="18.03" fill="#ebebeb"/><rect x="306.47" y="594.92" width="18.03" height="18.03" fill="#dcd9d9"/><rect x="324.5" y="594.92" width="18.03" height="18.03" fill="#f2f2f2"/><polygon points="324.5,594.92 342.53,594.92 342.53,612.9499999999999" fill="#f7f7f7"/><rect x="306.47" y="612.94" width="18.03" height="18.03" fill="#ffffff"/><g transform="translate(306.47,612.94) scale(0.9015000000000001) rotate(0)"><path fill-rule="evenodd" clip-rule="evenodd" d="M10 20C15.5228 20 20 15.5228 20 10C20 4.47715 15.5228 0 10 0C4.47715 0 0 4.47715 0 10C0 15.5228 4.47715 20 10 20ZM10 17C13.866 17 17 13.866 17 10C17 6.13401 13.866 3 10 3C6.13401 3 3 6.13401 3 10C3 13.866 6.13401 17 10 17Z" fill="#f8f8f8"/></g><rect x="324.5" y="612.94" width="18.03" height="18.03" fill="#f6f5f5"/><rect x="324.5" y="612.94" width="18.03" height="18.03" fill="#fafafa"/><rect x="378.58" y="594.92" width="36.06" height="36.06" fill="#f0f0f0"/><rect x="378.58" y="594.92" width="36.06" height="36.06" fill="#f8f8f8"/><rect x="450.69" y="594.92" width="36.06" height="36.06" fill="#f1f1f1"/><polygon points="450.69,594.92 486.75,594.92 486.75,630.98" fill="#ebe9e9"/><rect x="522.8055555555557" y="594.9166666666667" width="36.05555555555556" height="36.05555555555556" fill="#ffffff"/><rect x="522.81" y="594.92" width="18.03" height="18.03" fill="#f2f1f1"/><polygon points="540.8399999999999,594.92 540.8399999999999,612.9499999999999 522.81,612.9499999999999" fill="#fcfcfc"/><rect x="540.83" y="594.92" width="18.03" height="18.03" fill="#fdfcfc"/><rect x="540.83" y="594.92" width="18.03" height="18.03" fill="#efefef"/><rect x="522.81" y="612.94" width="18.03" height="18.03" fill="#d3cfcf"/><g transform="translate(522.81,612.94) scale(0.9015000000000001) rotate(0)"><path fill-rule="evenodd" clip-rule="evenodd" d="M10 20C15.5228 20 20 15.5228 20 10C20 4.47715 15.5228 0 10 0C4.47715 0 0 4.47715 0 10C0 15.5228 4.47715 20 10 20ZM10 17C13.866 17 17 13.866 17 10C17 6.13401 13.866 3 10 3C6.13401 3 3 6.13401 3 10C3 13.866 6.13401 17 10 17Z" fill="#e7e5e5"/></g><rect x="540.83" y="612.94" width="18.03" height="18.03" fill="#f3f3f3"/><g transform="translate(540.83,612.94) scale(0.9015000000000001) rotate(0)"><path fill-rule="evenodd" clip-rule="evenodd" d="M10 20C15.5228 20 20 15.5228 20 10C20 4.47715 15.5228 0 10 0C4.47715 0 0 4.47715 0 10C0 15.5228 4.47715 20 10 20ZM10 17C13.866 17 17 13.866 17 10C17 6.13401 13.866 3 10 3C6.13401 3 3 6.13401 3 10C3 13.866 6.13401 17 10 17Z" fill="#f2f2f2"/></g><rect x="594.92" y="594.92" width="36.06" height="36.06" fill="#eeecec"/><polygon points="594.92,594.92 630.98,594.92 594.92,630.98" fill="#f1f1f1"/><rect x="667.0277777777778" y="594.9166666666667" width="36.05555555555556" height="36.05555555555556" fill="#ffffff"/><rect x="667.03" y="594.92" width="18.03" height="18.03" fill="#e7e5e5"/><polygon points="667.03,594.92 685.06,612.9499999999999 667.03,612.9499999999999" fill="#f1f1f1"/><rect x="685.06" y="594.92" width="18.03" height="18.03" fill="#f0f0f0"/><rect x="685.06" y="594.92" width="18.03" height="18.03" fill="#e6e4e4"/><rect x="667.03" y="612.94" width="18.03" height="18.03" fill="#f9f9f9"/><rect x="667.03" y="612.94" width="18.03" height="18.03" fill="#e4e2e2"/><rect x="685.06" y="612.94" width="18.03" height="18.03" fill="#f6f5f5"/><rect x="685.06" y="612.94" width="18.03" height="18.03" fill="#f6f6f6"/><rect x="739.14" y="594.92" width="36.06" height="36.06" fill="#ececec"/><g transform="translate(739.14,594.92) scale(1.8030000000000002) rotate(0)"><path fill-rule="evenodd" clip-rule="evenodd" d="M10 20C15.5228 20 20 15.5228 20 10C20 4.47715 15.5228 0 10 0C4.47715 0 0 4.47715 0 10C0 15.5228 4.47715 20 10 20ZM10 17C13.866 17 17 13.866 17 10C17 6.13401 13.866 3 10 3C6.13401 3 3 6.13401 3 10C3 13.866 6.13401 17 10 17Z" fill="#fbfbfb"/></g><rect x="811.25" y="594.92" width="36.06" height="36.06" fill="#f3f3f3"/><g transform="translate(811.25,594.92) scale(1.8030000000000002) rotate(0)"><path fill-rule="evenodd" clip-rule="evenodd" d="M10 20C15.5228 20 20 15.5228 20 10C20 4.47715 15.5228 0 10 0C4.47715 0 0 4.47715 0 10C0 15.5228 4.47715 20 10 20ZM10 17C13.866 17 17 13.866 17 10C17 6.13401 13.866 3 10 3C6.13401 3 3 6.13401 3 10C3 13.866 6.13401 17 10 17Z" fill="#f7f7f7"/></g><rect x="883.3611111111112" y="594.9166666666667" width="36.05555555555556" height="36.05555555555556" fill="#ffffff"/><rect x="883.36" y="594.92" width="18.03" height="18.03" fill="#ededed"/><g transform="translate(883.36,594.92) scale(0.9015000000000001) rotate(0)"><path fill-rule="evenodd" clip-rule="evenodd" d="M10 20C15.5228 20 20 15.5228 20 10C20 4.47715 15.5228 0 10 0C4.47715 0 0 4.47715 0 10C0 15.5228 4.47715 20 10 20ZM10 17C13.866 17 17 13.866 17 10C17 6.13401 13.866 3 10 3C6.13401 3 3 6.13401 3 10C3 13.866 6.13401 17 10 17Z" fill="#fafafa"/></g><rect x="901.39" y="594.92" width="18.03" height="18.03" fill="#efeeee"/><rect x="901.39" y="594.92" width="18.03" height="18.03" fill="#d8d4d4"/><rect x="883.36" y="612.94" width="18.03" height="18.03" fill="#fcfcfc"/><rect x="883.36" y="612.94" width="18.03" height="18.03" fill="#f8f8f8"/><rect x="901.39" y="612.94" width="18.03" height="18.03" fill="#ececec"/><polygon points="901.39,612.94 919.42,612.94 901.39,630.97" fill="#f0f0f0"/><rect x="955.47" y="594.92" width="36.06" height="36.06" fill="#f6f6f6"/><g transform="translate(955.47,594.92) scale(1.8030000000000002) rotate(0)"><path fill-rule="evenodd" clip-rule="evenodd" d="M10 20C15.5228 20 20 15.5228 20 10C20 4.47715 15.5228 0 10 0C4.47715 0 0 4.47715 0 10C0 15.5228 4.47715 20 10 20ZM10 17C13.866 17 17 13.866 17 10C17 6.13401 13.866 3 10 3C6.13401 3 3 6.13401 3 10C3 13.866 6.13401 17 10 17Z" fill="#eaeaea"/></g><rect x="1027.58" y="594.92" width="36.06" height="36.06" fill="#dddbdb"/><rect x="1027.58" y="594.92" width="36.06" height="36.06" fill="#f5f5f5"/><rect x="1099.69" y="594.92" width="36.06" height="36.06" fill="#f8f7f7"/><polygon points="1135.75,594.92 1135.75,630.98 1099.69,630.98" fill="#eaeaea"/><rect x="1171.81" y="594.92" width="36.06" height="36.06" fill="#fafafa"/><rect x="1171.81" y="594.92" width="36.06" height="36.06" fill="#d6d2d2"/></g></svg>